<?xml version="1.0" standalone="no"?>
<!DOCTYPE svg PUBLIC "-//W3C//DTD SVG 20010904//EN"
 "http://www.w3.org/TR/2001/REC-SVG-20010904/DTD/svg10.dtd">
<svg version="1.0" xmlns="http://www.w3.org/2000/svg"
 width="512.000000pt" height="512.000000pt" viewBox="0 0 512.000000 512.000000"
 preserveAspectRatio="xMidYMid meet">
<metadata>
Nothing Burger Rocks
</metadata>
<g transform="translate(0.000000,512.000000) scale(0.100000,-0.100000)"
fill="#000000" stroke="none">
<path d="M2630 4383 c-25 -2 -268 -4 -540 -6 -272 -2 -506 -7 -520 -10 -13 -4
-42 -9 -64 -13 -276 -41 -594 -202 -813 -412 -257 -246 -411 -532 -477 -887
-6 -30 -18 -141 -20 -180 -1 -12 -18 -31 -41 -46 -51 -33 -70 -55 -91 -104
-33 -79 -18 -163 41 -233 l26 -31 -29 -33 c-66 -77 -97 -162 -97 -269 1 -124
29 -192 118 -283 l69 -71 3 -280 c1 -154 5 -289 8 -300 32 -123 95 -234 179
-316 82 -80 222 -150 325 -163 57 -8 3651 -7 3703 0 194 27 382 170 462 352
46 104 50 134 53 432 3 229 6 286 18 295 71 52 112 105 147 185 20 46 23 71
23 150 -1 56 -7 109 -15 130 -23 59 -55 114 -83 143 l-27 29 25 26 c54 58 75
138 55 212 -13 45 -74 120 -110 134 -15 6 -28 15 -29 21 0 5 -2 17 -3 25 -2 8
-6 45 -10 82 -12 126 -55 298 -104 418 -51 124 -153 303 -211 369 -12 13 -21
27 -21 31 0 14 -206 216 -265 260 -33 25 -62 47 -65 51 -8 9 -172 105 -220
129 -179 87 -401 145 -600 156 -99 6 -721 11 -800 7z"/>
</g>
</svg>
